<svg width="66" height="66" viewBox="0 0 66 66" fill="none" xmlns="http://www.w3.org/2000/svg">
<rect x="0.5" y="0.5" width="65" height="65" rx="32.5" fill="#FFF5F0"/>
<rect x="0.5" y="0.5" width="65" height="65" rx="32.5" stroke="#333333"/>
<mask id="mask0_1_1524" style="mask-type:luminance" maskUnits="userSpaceOnUse" x="9" y="9" width="48" height="48">
<path d="M56.4407 9.5625H9.46826V56.535H56.4407V9.5625Z" fill="white"/>
</mask>
<g mask="url(#mask0_1_1524)">
<path fill-rule="evenodd" clip-rule="evenodd" d="M36.4361 12.2855C36.1485 11.8062 35.7171 11.3748 35.094 11.3269L35.2857 11.6145L35.3816 11.8062L35.7171 12.4293L35.8129 12.5252C36.0526 13.1004 36.1964 13.6755 36.2443 14.2986C36.2443 14.6341 36.1485 14.9217 36.0526 15.2573C35.9088 14.4424 35.4774 13.8193 34.9981 13.2441C34.4894 12.7234 33.8656 12.3294 33.1767 12.0938C32.2324 11.7185 31.1973 11.6351 30.205 11.8541C29.8216 11.9021 29.486 12.0938 29.1026 12.2855C28.7671 12.4773 28.4795 12.7648 28.1919 13.0045C27.4957 13.6966 26.9563 14.5303 26.6102 15.449C26.3226 16.1679 25.9871 16.8869 25.5557 17.5579C25.2202 18.1331 24.7409 18.6604 24.2616 19.0917L22.9195 20.0024C22.1314 20.4982 21.3639 21.0259 20.6188 21.5842C19.5164 22.5428 18.7015 23.8369 18.2702 25.2749C18.0784 25.9938 17.9347 26.7607 18.0305 27.4797C18.1264 27.8631 18.2222 28.1986 18.414 28.5342V28.9176C18.2222 29.8283 18.1743 30.7869 18.4619 31.6976C18.7774 32.7727 19.3164 33.7691 20.0436 34.6214L20.7147 35.5321C21.0022 36.0114 21.2419 36.5387 21.2898 37.1138C21.2898 37.5452 21.146 37.9287 20.8105 38.2162C20.5526 38.4429 20.2372 38.594 19.899 38.6532C19.5608 38.7124 19.2128 38.6773 18.8933 38.5518L18.6536 38.408L18.4619 38.3121L18.414 38.408C18.366 38.4559 18.3181 38.5518 18.366 38.6476L18.7015 39.2707C18.9891 39.6542 19.3247 39.9418 19.756 40.1335C20.0915 40.3252 20.475 40.3731 20.8584 40.2773C21.0981 40.2294 21.2898 40.1335 21.4816 39.9897C21.4816 40.469 21.6253 40.9483 21.7691 41.3797C21.9609 41.9069 22.2484 42.4342 22.6798 42.8176C23.0633 43.2011 23.5426 43.3928 24.0219 43.5366C24.4533 43.6804 24.8847 43.6804 25.316 43.5845C25.4119 43.5366 25.4119 43.4887 25.4119 43.3928L25.2681 43.0573L25.2202 42.9614L24.8367 42.0028C25.6995 42.6259 26.706 42.9135 27.7605 43.0094C28.4316 43.0573 29.1505 42.9614 29.7736 42.7218C29.9174 42.6738 30.1091 42.578 30.1571 42.4342C30.2529 42.2904 30.1571 42.1466 30.1091 42.0028L29.9174 41.2838L29.8695 41.14C30.3009 41.4276 30.7323 41.6194 31.2595 41.6194C31.8347 41.6194 32.4578 41.3797 32.7933 40.9004L32.9371 40.8525C32.6973 38.7383 32.1983 36.6616 31.4512 34.6693C31.1272 33.8044 30.7261 32.9702 30.2529 32.1769L30.1571 31.8893C30.1571 31.1704 30.0612 30.3555 29.6298 29.7804C29.9654 29.2531 30.0133 28.5821 30.0612 28.0069C30.0612 27.5276 30.0612 27.0483 29.8216 26.6169L30.0133 26.569L30.3967 26.5211C30.4926 26.4731 30.5405 26.3293 30.5885 26.2335C30.9094 24.9014 31.3923 23.6136 32.0264 22.399L32.3619 21.728C32.4578 21.5842 32.4578 21.4404 32.5057 21.2486V21.0569L32.4098 20.3859L32.3619 19.9545L33.3205 20.2421H33.7998C36.2223 19.825 38.6924 19.7605 41.1333 20.0504L41.4688 20.1462L41.7085 20.2421C41.8043 20.2421 41.9481 20.1942 41.9961 20.0983C42.1399 19.9545 42.1878 19.7628 42.2357 19.5711L42.3795 19.6669L42.8109 20.0024L43.1464 20.1942C43.3675 20.2355 43.5927 20.2516 43.8174 20.2421L44.5843 21.009L44.6323 21.0569C45.6424 22.2118 46.5112 23.483 47.2205 24.8435C47.4123 24.9873 47.6519 24.8914 47.7478 24.6997C48.0833 23.9328 48.1312 23.07 47.9874 22.2552C47.7212 21.0381 47.085 19.9331 46.1661 19.0917C45.8785 18.7562 45.495 18.4686 45.1116 18.1811L43.0985 17.1266C42.0919 16.6952 41.0374 16.3597 39.983 16.1679C38.7847 15.9283 37.5864 15.9283 36.3402 15.9762C36.8674 15.449 37.0112 14.73 37.0112 14.011C37.0112 13.3879 36.7716 12.8128 36.4361 12.2855ZM24.0698 20.8173C24.645 20.1462 25.2202 19.4752 25.6516 18.6604L24.8847 19.4752C24.4053 19.9066 23.8781 20.1942 23.3509 20.5297L22.8236 20.8652L22.6798 20.9131C22.0567 21.2966 21.3857 21.728 20.8584 22.2073C19.804 23.118 19.085 24.3642 18.7495 25.7062C18.6057 26.4252 18.5098 27.1921 18.7015 27.9111C18.9891 27.0483 19.4205 26.1855 19.8998 25.4186C20.5229 24.46 21.2898 23.5493 22.1047 22.7345L23.0153 21.8238L24.0698 20.8173Z" fill="#262626"/>
<path d="M37.8258 16.6484C39.1678 16.6963 40.5099 16.936 41.852 17.3674C43.7281 17.897 45.3994 18.9833 46.6451 20.4829C47.5558 21.6812 48.131 23.1191 48.3227 24.6049C48.5814 26.2062 48.6136 27.8358 48.4185 29.446L48.1789 31.0756L47.9872 32.0343C47.9392 32.1301 47.9392 32.1301 47.8434 32.1301C47.7475 31.9384 47.7475 31.7467 47.7475 31.555C47.6996 30.836 47.7954 30.165 47.8434 29.446C47.8913 28.2956 47.9872 27.1453 47.8913 25.995L47.6037 23.8381C47.2682 22.496 46.6451 21.2498 45.6865 20.2432C44.8237 19.3805 43.7692 18.6615 42.6668 18.1822C41.6123 17.7508 40.5578 17.4632 39.4554 17.2715C38.5927 17.1277 37.7299 17.0798 36.8671 17.0798C34.7403 17.0449 32.6361 17.5217 30.732 18.4698C30.1089 18.9011 29.5337 19.4284 29.0544 20.0036C27.5795 21.9396 26.6673 24.245 26.4182 26.666C26.3702 27.8163 26.4182 28.9187 26.8016 30.0212L27.1371 30.7401L27.7123 30.7881L27.7602 30.9319C27.6164 31.0277 27.4247 31.0277 27.233 31.0756C26.7537 31.1715 26.2744 31.3632 25.843 31.6508C25.5075 31.8905 25.172 32.1781 24.9802 32.5615C24.7406 33.0408 24.8364 33.616 24.9323 34.1432C25.172 35.0539 25.7471 35.9167 26.514 36.4919C27.0413 36.9232 27.7123 37.1629 28.3833 37.2588C28.8627 37.3546 29.342 37.2588 29.8213 37.2108C30.0609 37.4025 30.2047 37.786 30.3485 38.0257L31.2113 39.3198C31.991 40.428 33.0968 41.2657 34.3747 41.7163C35.4292 42.1477 36.5316 42.3874 37.634 42.627L39.5992 43.0105L40.414 43.2501V43.4419H39.8389C38.7614 43.3818 37.6888 43.2537 36.6275 43.0584C35.2021 42.7748 33.8386 42.2391 32.6013 41.4767C32.074 41.1412 31.5947 40.7098 31.2113 40.1826C31.5433 42.1803 31.2764 44.2317 30.4444 46.0781C29.7254 47.3722 28.5271 48.3788 27.0892 48.8102C26.9454 48.8581 26.7537 48.906 26.6099 48.8581C26.514 48.8581 26.514 48.8102 26.514 48.7143C26.562 48.5705 26.7058 48.4746 26.8016 48.4267C27.3768 48.0433 28.0478 47.7557 28.623 47.3243C29.2461 46.797 29.7733 46.2219 30.1089 45.5029C30.3964 44.7839 30.5882 43.9691 30.684 43.1543C30.7799 42.5312 30.8278 41.9081 30.7799 41.237L30.5882 39.4157L29.7254 37.6901L28.8147 37.8819C28.1111 37.9023 27.4136 37.7464 26.7857 37.4283C26.1578 37.1101 25.6195 36.6399 25.2199 36.0605C24.5951 35.2689 24.2572 34.2889 24.2613 33.2805C24.2613 32.8491 24.4051 32.4177 24.6447 32.0822C24.8844 31.7467 25.2199 31.4591 25.5554 31.2674C25.7951 31.0756 26.1306 30.9798 26.4182 30.8839L25.9868 29.7336C25.7471 28.6791 25.7471 27.5767 25.8909 26.5222C26.2048 23.9047 27.2515 21.4291 28.9106 19.3805C29.342 18.9011 29.7733 18.4698 30.3006 18.1343C30.6361 17.9425 30.9716 17.8946 31.2592 17.7029C33.3202 16.7922 35.573 16.5046 37.8258 16.6484Z" fill="#262626"/>
<path d="M36.8669 17.0785C38.8585 17.0045 40.8411 17.3813 42.6666 18.181C43.769 18.6603 44.8235 19.3792 45.6862 20.242C46.6449 21.2485 47.268 22.4948 47.6035 23.8368L47.8911 25.9937C47.9869 27.1441 47.8911 28.2944 47.8431 29.4448C47.7952 30.1637 47.6993 30.8348 47.7473 31.5537C47.7473 31.7455 47.7473 31.9372 47.8431 32.1289L47.7952 33.0875C47.6993 33.3272 47.6993 33.5668 47.6993 33.8544C47.6035 35.0048 47.6035 36.203 47.4118 37.4013C47.3638 37.9765 47.268 38.5996 47.0283 39.1268C46.8845 39.5582 46.6449 39.9417 46.3093 40.2772C45.7342 40.9003 45.0152 41.4275 44.2483 41.8589C43.3376 42.3862 42.379 42.6258 41.4683 43.0093C41.2286 43.1051 40.989 43.201 40.8452 43.3927C41.2286 43.4406 41.5642 43.3927 41.9476 43.2968C41.708 43.872 41.66 44.4472 41.66 45.0224C41.66 45.262 41.6121 45.5496 41.708 45.7893C41.8517 46.0289 42.0914 46.2206 42.3311 46.3644L44.0086 46.9875C45.0631 47.371 46.0697 47.8503 47.1242 48.2817C47.22 48.4734 47.3638 48.6172 47.4118 48.8569C47.6993 49.3841 47.7473 49.9593 47.5555 50.5344C47.3159 51.1575 46.8366 51.6848 46.2614 52.0203C45.4945 52.5475 44.5359 52.931 43.6252 53.1707C39.8983 53.9669 36.0343 53.8518 32.3614 52.8351C31.4028 52.4996 30.4441 52.1641 29.5814 51.6848C28.9104 51.3013 28.1914 50.822 27.6641 50.1989C27.3766 49.8155 27.1369 49.2882 27.089 48.8089C28.2113 48.4664 29.2046 47.794 29.9398 46.8794C30.6749 45.9647 31.1179 44.8501 31.211 43.6803C31.4028 42.5299 31.4028 41.3317 31.211 40.1813C31.5945 40.7086 32.0738 41.1399 32.601 41.4755L33.8952 42.1465C35.7743 42.9572 37.7926 43.3966 39.8386 43.4406H40.4138V43.2489L39.599 43.0093L37.6338 42.6258C36.5314 42.3862 35.429 42.1465 34.3745 41.7151C33.7514 41.4275 33.0804 41.092 32.5052 40.7086C32.0259 40.2772 31.5945 39.8458 31.211 39.3186L30.3483 38.0244C30.2045 37.7848 30.0607 37.4013 29.821 37.2096C29.3417 37.2575 28.8624 37.3534 28.3831 37.2575C27.7121 37.1617 27.041 36.922 26.5138 36.4906C25.7479 35.8981 25.1932 35.0745 24.9321 34.142C24.8362 33.6148 24.7403 33.0396 24.98 32.5603C25.1717 32.1768 25.5072 31.8892 25.8428 31.6496C26.2741 31.362 26.7535 31.1703 27.2328 31.0744C27.4245 31.0265 27.6162 31.0265 27.76 30.9306L27.7121 30.7868L27.1369 30.7389L26.8014 30.0199C26.4179 28.9175 26.37 27.8151 26.4659 26.6648C26.701 24.2485 27.5964 21.9436 29.0541 20.0023C29.5335 19.4272 30.1086 18.8999 30.7317 18.4685C32.6318 17.5038 34.7361 17.0106 36.8669 17.0306V17.0785Z" fill="#FFDECC"/>
<path d="M26.563 32.7983C26.7547 32.7983 26.8985 32.7983 27.0902 32.8942C27.3299 32.9421 27.6175 33.0859 27.7613 33.2777C27.8571 33.4214 27.8571 33.6132 27.7613 33.757C27.5216 34.0445 27.1861 34.2363 26.9944 34.5239C27.282 34.7156 27.6654 34.8114 28.0009 34.9552C28.1926 35.0032 28.3844 35.099 28.5282 35.2428L28.5761 35.3866L28.1926 35.2908L27.0423 34.9552C26.8506 34.9073 26.6589 34.8114 26.6109 34.6197C26.563 34.4759 26.6589 34.2842 26.7547 34.1404L27.4737 33.5173C27.282 33.1818 26.7547 33.1339 26.563 32.7983ZM47.7965 33.0859L47.8923 33.2297L47.9882 33.9966C48.0876 35.4185 48.0555 36.8465 47.8923 38.2625C47.7965 38.7897 47.6527 39.3649 47.413 39.8442C46.1413 41.5081 44.355 42.7046 42.3323 43.2473C42.2844 43.9184 42.1885 44.7332 42.2365 45.5001L42.4761 45.7397C42.8596 46.0273 43.3389 46.1711 43.7703 46.3149C44.8914 46.6728 45.9815 47.1216 47.0296 47.657C47.3651 47.8487 47.6527 48.0884 47.8923 48.3759C47.6527 48.4239 47.413 48.328 47.1254 48.2801C46.0709 47.8487 45.0644 47.3694 44.0099 46.9859L42.3323 46.3628C42.0927 46.219 41.853 46.0273 41.7092 45.7877C41.6134 45.548 41.6613 45.2604 41.6613 45.0208C41.6613 44.4456 41.7092 43.8704 41.9489 43.2952C41.5654 43.3911 41.2299 43.439 40.8465 43.3911C40.9902 43.1994 41.2299 43.1035 41.4696 43.0077C42.3802 42.6242 43.3389 42.3846 44.2496 41.8573C45.0165 41.4259 45.7354 40.8987 46.3106 40.2756C46.6461 39.9401 46.8858 39.5566 47.0296 39.1252C47.2692 38.598 47.3651 37.9749 47.413 37.3997C47.6047 36.2014 47.6047 35.0032 47.7006 33.8528C47.7006 33.5652 47.7006 33.3256 47.7965 33.0859Z" fill="#262626"/>
<path d="M46.1658 28.1033C46.5493 28.0554 46.9327 28.1512 47.2203 28.3909C47.3641 28.5347 47.5079 28.7264 47.5079 28.9181C47.5558 29.1578 47.3162 29.3974 47.0765 29.3974C46.8848 29.3495 46.7889 29.2536 46.6931 29.1098L46.2138 28.7743C46.6451 29.5412 46.4055 30.5957 45.7345 31.123C45.3989 31.4105 44.8717 31.5064 44.5362 31.1709C44.2486 30.9312 44.1527 30.5957 44.1527 30.2123C44.0569 30.4519 43.9131 30.6436 43.8651 30.8833C43.8172 30.9792 43.8172 31.075 43.7213 31.075C43.6255 30.8354 43.6734 30.5478 43.7693 30.2602C44.0569 29.4933 44.5841 28.8223 45.3031 28.4388C45.5427 28.2471 45.8303 28.1512 46.1658 28.1033ZM36.0044 28.6305C37.2986 28.6785 38.5448 29.4933 39.072 30.6436C39.1679 30.7395 39.2638 30.9312 39.12 31.075C38.9762 31.075 38.8803 30.8833 38.7844 30.7874C38.5927 30.404 38.3051 30.1164 37.9696 29.8767C38.0655 30.404 38.0655 30.8833 37.7779 31.3626C37.5382 31.7461 37.011 31.9857 36.5796 31.9378C36.2441 31.8419 35.9086 31.6981 35.6689 31.4105C35.3813 31.123 35.2855 30.6436 35.2855 30.2602C35.2855 29.9247 35.4293 29.6371 35.5731 29.3974C34.902 29.5412 34.231 29.8288 33.7038 30.2602C33.56 30.3081 33.4641 30.404 33.3203 30.404C33.1286 30.3561 33.0327 30.2123 33.0327 30.0205C33.0327 29.8767 33.1286 29.7329 33.2244 29.6371C33.6079 29.3495 33.9913 29.0619 34.4706 28.8702C34.95 28.6785 35.4772 28.5826 36.0044 28.6305Z" fill="#262626"/>
<path d="M36.4848 23.5002C37.2038 23.5482 38.0186 23.7399 38.5938 24.2192C38.7855 24.363 38.9772 24.5547 39.0252 24.7464C39.0731 24.8902 39.0731 24.9861 38.9293 25.034C38.7855 25.034 38.6417 24.8902 38.5458 24.7944C38.0186 24.4109 37.3955 24.1713 36.7245 24.1713C36.341 24.1713 36.0055 24.2671 35.622 24.363C34.9031 24.5068 34.232 24.8902 33.8007 25.4654C33.6569 25.6092 33.561 25.8009 33.3214 25.8489C33.0817 25.8968 32.842 25.7051 32.842 25.4654C32.7941 25.2737 32.9379 25.082 33.0338 24.9382C33.6089 24.2192 34.4717 23.7399 35.3824 23.5482C35.7179 23.4523 36.1014 23.4523 36.4848 23.5002ZM46.3107 23.9795C46.5503 24.0754 46.79 24.3151 46.9338 24.5068C47.0776 24.6506 47.1734 24.8423 47.1734 25.034C47.1734 25.3216 46.8859 25.5133 46.5983 25.4175C46.3586 25.3216 46.3107 25.082 46.119 24.8902C45.9272 24.7464 45.6876 24.5547 45.4958 24.5068C44.9207 24.3151 44.3455 24.5547 43.9621 24.9382L43.5307 25.3695C43.5307 25.034 43.7224 24.7464 43.9621 24.5547C44.5372 23.9316 45.4958 23.692 46.3107 23.9795Z" fill="#262626"/>
<path d="M43.1943 34.478C43.1943 34.6218 43.0984 34.7656 43.0026 34.9094C42.8108 35.197 42.4753 35.3887 42.1398 35.4846C41.9001 35.5325 41.7084 35.3887 41.5167 35.4846C41.325 35.4846 41.1332 35.5325 40.9415 35.4366C40.8457 35.3887 40.8457 35.2449 40.9415 35.1491C41.0853 34.9573 41.325 34.8135 41.5167 34.8135C41.7084 34.7656 41.8522 34.7656 41.996 34.9094L42.0439 35.2449C42.2836 35.1491 42.3795 35.0053 42.5712 34.8615L43.1943 34.478Z" fill="#262626"/>
<path d="M36.9151 37.0625C37.0589 37.0625 37.1548 37.1584 37.2506 37.2542L37.8738 37.5897C38.401 37.8294 38.9762 37.9732 39.5034 38.117C40.2224 38.3566 40.9413 38.4046 41.6603 38.4046C42.2355 38.4525 42.7627 38.5004 43.29 38.4525L43.4817 38.5484C42.6189 38.9797 41.5165 39.0756 40.5579 39.0277C39.4555 38.9797 38.3531 38.6442 37.3944 38.1649C37.1069 37.9732 36.7713 37.7815 36.7234 37.398C36.6755 37.2542 36.7713 37.0625 36.9151 37.0625Z" fill="#262626"/>
<path d="M38.449 15.9789C40.0567 16.0708 41.6332 16.4609 43.0983 17.1292C43.7693 17.4647 44.4883 17.8003 45.1114 18.2316C45.4949 18.4713 45.8783 18.7589 46.1659 19.0944L47.2204 20.2927C46.789 20.4844 46.3576 20.4365 45.9262 20.3885C45.1114 20.2927 44.2966 20.1968 43.4818 20.2448L43.0983 20.1968L42.7628 19.9572L42.1876 19.5737C42.1876 19.7654 42.1397 19.9092 42.0438 20.101C41.948 20.1968 41.8521 20.2448 41.7083 20.2448C41.5166 20.1968 41.3728 20.101 41.1811 20.101C38.7137 19.7373 36.2031 19.7859 33.7517 20.2448H33.2245L32.3617 19.9572C32.4097 20.3885 32.5535 20.8199 32.5055 21.2034C32.4576 21.3951 32.4576 21.5868 32.3617 21.7306C32.0262 22.4017 31.6428 23.0248 31.3552 23.7437C31.0197 24.5585 30.7321 25.4213 30.5404 26.2841C30.5404 26.3799 30.4924 26.4758 30.3966 26.5237L29.8214 26.6196C30.061 27.051 30.109 27.5782 30.061 28.0575C30.0131 28.6327 29.9173 29.3037 29.6297 29.783C29.9652 30.2144 30.109 30.7896 30.109 31.3648C30.1569 32.2755 30.109 33.1382 29.7735 34.001C29.6776 34.1927 29.5338 34.4324 29.2941 34.5282C29.2462 34.5761 29.1024 34.5761 29.1024 34.4803C29.0066 34.2886 29.0066 34.0489 28.9586 33.8572C28.8628 33.1382 28.5273 32.4672 28 31.9399C27.6166 31.6044 27.1852 31.2689 26.7538 31.0292C26.4662 30.9334 26.2266 30.8375 25.9869 30.6458L25.6993 30.2624C25.1241 28.7286 24.9324 27.051 25.1241 25.4213C25.3279 23.5113 25.9322 21.6657 26.8976 20.0051C27.3769 19.2382 27.9521 18.5672 28.5752 17.9441C29.0545 17.5127 29.5338 17.1292 30.061 16.8416L30.7321 16.602L32.2659 16.0747L33.1766 15.9789H35.2376C36.34 15.9789 37.3466 15.883 38.449 15.9789Z" fill="#262626"/>
</g>
</svg>
