<svg width="66" height="66" viewBox="0 0 66 66" fill="none" xmlns="http://www.w3.org/2000/svg">
<rect x="0.5" y="0.5" width="65" height="65" rx="32.5" fill="#FFF5F0"/>
<rect x="0.5" y="0.5" width="65" height="65" rx="32.5" stroke="#333333"/>
<mask id="mask0_1_951" style="mask-type:luminance" maskUnits="userSpaceOnUse" x="9" y="9" width="48" height="48">
<path d="M56.5318 9.5625H9.55933V56.535H56.5318V9.5625Z" fill="white"/>
</mask>
<g mask="url(#mask0_1_951)">
<path d="M34.0077 15.2941C35.3497 15.3421 36.6918 15.5817 38.0339 16.0131C39.91 16.5428 41.5813 17.6291 42.827 19.1286C43.7377 20.3269 44.3128 21.7648 44.5046 23.2507C44.7633 24.8519 44.7955 26.4815 44.6004 28.0917L44.3608 29.7214L44.169 30.68C44.1211 30.7759 44.1211 30.7759 44.0253 30.7759C43.9294 30.5842 43.9294 30.3924 43.9294 30.2007C43.8815 29.4817 43.9773 28.8107 44.0253 28.0917C44.0732 26.9414 44.169 25.791 44.0732 24.6407L43.7856 22.4838C43.4501 21.1417 42.827 19.8955 41.8684 18.889C41.0056 18.0262 39.9511 17.3072 38.8487 16.8279C37.7942 16.3966 36.7397 16.109 35.6373 15.9172C34.7745 15.7735 33.9118 15.7255 33.049 15.7255C30.9221 15.6907 28.818 16.1674 26.9139 17.1155C26.2907 17.5469 25.7156 18.0741 25.2363 18.6493C23.7614 20.5853 22.8492 22.8907 22.6001 25.3117C22.5521 26.4621 22.6001 27.5645 22.9835 28.6669L23.319 29.3859L23.8942 29.4338L23.9421 29.5776C23.7983 29.6735 23.6066 29.6735 23.4149 29.7214C22.9356 29.8173 22.4563 30.009 22.0249 30.2966C21.6894 30.5362 21.3538 30.8238 21.1621 31.2073C20.9225 31.6866 21.0183 32.2617 21.1142 32.789C21.3538 33.6997 21.929 34.5624 22.6959 35.1376C23.2232 35.569 23.8942 35.8086 24.5652 35.9045C25.0445 36.0004 25.5238 35.9045 26.0032 35.8566C26.2428 36.0483 26.3866 36.4318 26.5304 36.6714L27.3932 37.9655C28.1729 39.0738 29.2787 39.9115 30.5566 40.3621C31.6111 40.7935 32.7135 41.0331 33.8159 41.2728L35.7811 41.6562L36.5959 41.8959V42.0876H36.0208C34.9433 42.0275 33.8707 41.8994 32.8094 41.7042C31.3839 41.4205 30.0205 40.8849 28.7832 40.1224C28.2559 39.7869 27.7766 39.3555 27.3932 38.8283C27.7251 40.8261 27.4583 42.8775 26.6263 44.7238C25.9073 46.018 24.709 47.0245 23.2711 47.4559C23.1273 47.5038 22.9356 47.5518 22.7918 47.5038C22.6959 47.5038 22.6959 47.4559 22.6959 47.36C22.7438 47.2162 22.8876 47.1204 22.9835 47.0725C23.5587 46.689 24.2297 46.4014 24.8049 45.97C25.428 45.4428 25.9552 44.8676 26.2907 44.1487C26.5783 43.4297 26.7701 42.6149 26.8659 41.8C26.9618 41.1769 27.0097 40.5538 26.9618 39.8828L26.7701 38.0614L25.9073 36.3359L24.9966 36.5276C24.293 36.5481 23.5955 36.3921 22.9676 36.074C22.3397 35.7559 21.8014 35.2857 21.4018 34.7062C20.777 33.9147 20.439 32.9347 20.4432 31.9262C20.4432 31.4949 20.5869 31.0635 20.8266 30.728C21.0663 30.3924 21.4018 30.1048 21.7373 29.9131C21.9769 29.7214 22.3125 29.6255 22.6001 29.5297L22.1687 28.3793C21.929 27.3248 21.929 26.2224 22.0728 25.1679C22.3867 22.5505 23.4334 20.0749 25.0925 18.0262C25.5238 17.5469 25.9552 17.1155 26.4825 16.78C26.818 16.5883 27.1535 16.5403 27.4411 16.3486C29.5021 15.4379 31.7549 15.1503 34.0077 15.2941Z" fill="#262626"/>
<path d="M33.0486 15.7243C35.0401 15.6502 37.0227 16.0271 38.8482 16.8267C39.9506 17.306 41.0051 18.025 41.8679 18.8877C42.8265 19.8943 43.4496 21.1405 43.7851 22.4826L44.0727 24.6395C44.1686 25.7898 44.0727 26.9402 44.0248 28.0905C43.9768 28.8095 43.881 29.4805 43.9289 30.1995C43.9289 30.3912 43.9289 30.5829 44.0248 30.7747L43.9768 31.7333C43.881 31.9729 43.881 32.2126 43.881 32.5002C43.7851 33.6505 43.7851 34.8488 43.5934 36.0471C43.5455 36.6223 43.4496 37.2454 43.2099 37.7726C43.0662 38.204 42.8265 38.5874 42.491 38.9229C41.9158 39.546 41.1968 40.0733 40.4299 40.5047C39.5193 41.0319 38.5606 41.2716 37.6499 41.655C37.4103 41.7509 37.1706 41.8467 37.0268 42.0385C37.4103 42.0864 37.7458 42.0385 38.1292 41.9426C37.8896 42.5178 37.8417 43.0929 37.8417 43.6681C37.8417 43.9078 37.7937 44.1954 37.8896 44.435C38.0334 44.6747 38.273 44.8664 38.5127 45.0102L40.1903 45.6333C41.2448 46.0167 42.2513 46.4961 43.3058 46.9274C43.4017 47.1192 43.5455 47.263 43.5934 47.5026C43.881 48.0299 43.9289 48.605 43.7372 49.1802C43.4975 49.8033 43.0182 50.3305 42.443 50.6661C41.6761 51.1933 40.7175 51.5768 39.8068 51.8164C36.0799 52.6127 32.2159 52.4976 28.543 51.4809C27.5844 51.1454 26.6258 50.8099 25.763 50.3305C25.092 49.9471 24.373 49.4678 23.8458 48.8447C23.5582 48.4612 23.3185 47.934 23.2706 47.4547C24.393 47.1121 25.3863 46.4398 26.1214 45.5251C26.8566 44.6105 27.2995 43.4958 27.3927 42.326C27.5844 41.1757 27.5844 39.9774 27.3927 38.8271C27.7761 39.3543 28.2554 39.7857 28.7827 40.1212L30.0768 40.7923C31.956 41.6029 33.9742 42.0424 36.0203 42.0864H36.5955V41.8947L35.7806 41.655L33.8155 41.2716C32.713 41.0319 31.6106 40.7923 30.5561 40.3609C29.933 40.0733 29.262 39.7378 28.6868 39.3543C28.2075 38.9229 27.7761 38.4916 27.3927 37.9643L26.5299 36.6702C26.3861 36.4305 26.2423 36.0471 26.0027 35.8554C25.5234 35.9033 25.0441 35.9991 24.5647 35.9033C23.8937 35.8074 23.2227 35.5678 22.6954 35.1364C21.9295 34.5438 21.3749 33.7203 21.1137 32.7878C21.0178 32.2605 20.922 31.6853 21.1616 31.206C21.3534 30.8226 21.6889 30.535 22.0244 30.2953C22.4558 30.0078 22.9351 29.816 23.4144 29.7202C23.6061 29.6722 23.7979 29.6722 23.9416 29.5764L23.8937 29.4326L23.3185 29.3847L22.983 28.6657C22.5996 27.5633 22.5516 26.4609 22.6475 25.3105C22.8826 22.8943 23.7781 20.5893 25.2358 18.6481C25.7151 18.0729 26.2903 17.5457 26.9134 17.1143C28.8134 16.1496 30.9177 15.6564 33.0486 15.6764V15.7243Z" fill="#FFDECC"/>
<path d="M22.7446 31.4504C22.9364 31.4504 23.0801 31.4504 23.2719 31.5463C23.5115 31.5942 23.7991 31.738 23.9429 31.9298C24.0388 32.0735 24.0388 32.2653 23.9429 32.4091C23.7033 32.6966 23.3677 32.8884 23.176 33.176C23.4636 33.3677 23.847 33.4635 24.1826 33.6073C24.3743 33.6553 24.566 33.7511 24.7098 33.8949L24.7577 34.0387L24.3743 33.9429L23.2239 33.6073C23.0322 33.5594 22.8405 33.4635 22.7926 33.2718C22.7446 33.128 22.8405 32.9363 22.9364 32.7925L23.6553 32.1694C23.4636 31.8339 22.9364 31.786 22.7446 31.4504ZM43.9781 31.738L44.074 31.8818L44.1698 32.6487C44.2693 34.0706 44.2372 35.4986 44.074 36.9146C43.9781 37.4418 43.8343 38.017 43.5947 38.4963C42.323 40.1602 40.5366 41.3567 38.514 41.8994C38.466 42.5705 38.3702 43.3853 38.4181 44.1522L38.6578 44.3918C39.0412 44.6794 39.5205 44.8232 39.9519 44.967C41.0731 45.3249 42.1631 45.7737 43.2112 46.3091C43.5467 46.5008 43.8343 46.7405 44.074 47.028C43.8343 47.076 43.5947 46.9801 43.3071 46.9322C42.2526 46.5008 41.246 46.0215 40.1915 45.638L38.514 45.0149C38.2743 44.8711 38.0346 44.6794 37.8909 44.4398C37.795 44.2001 37.8429 43.9125 37.8429 43.6729C37.8429 43.0977 37.8909 42.5225 38.1305 41.9473C37.7471 42.0432 37.4115 42.0911 37.0281 42.0432C37.1719 41.8515 37.4115 41.7556 37.6512 41.6598C38.5619 41.2763 39.5205 41.0367 40.4312 40.5094C41.1981 40.078 41.9171 39.5508 42.4922 38.9277C42.8278 38.5922 43.0674 38.2087 43.2112 37.7773C43.4509 37.2501 43.5467 36.627 43.5947 36.0518C43.7864 34.8535 43.7864 33.6553 43.8822 32.5049C43.8822 32.2173 43.8822 31.9777 43.9781 31.738Z" fill="#262626"/>
<path d="M43.4979 28.5208L43.402 28.8563C43.2582 29.0959 43.1144 29.2876 42.8748 29.4314C42.6351 29.5752 42.3475 29.6232 42.06 29.6711L41.1972 29.767C40.9575 29.767 40.8137 29.9108 40.7179 30.0545L40.3824 30.3901C40.2865 30.438 40.1427 30.3421 40.1906 30.2463C40.2386 29.8628 40.5262 29.5752 40.7179 29.2876C40.8617 29.1439 41.0534 28.9521 41.2931 28.9521L42.731 28.7125C42.9706 28.6645 43.2103 28.5208 43.4979 28.5208ZM28.8789 28.7125C29.4541 28.6645 29.8855 28.8563 30.4127 28.9042C31.1317 29.0001 31.8506 29.0959 32.5696 29.0959L33.7199 29.1918C34.1034 29.2397 34.5348 29.1918 34.8703 29.3835C35.2058 29.5752 35.4455 29.8628 35.6372 30.1504C35.6851 30.2463 35.7331 30.3421 35.6372 30.4859C35.5893 30.5339 35.4934 30.4859 35.4455 30.438C35.2537 30.3421 35.1099 30.1504 34.9182 30.1025L34.3431 30.0545L33.001 30.0066L31.9465 29.9587C31.4672 29.9108 30.9879 29.9108 30.5086 29.719C30.173 29.6232 29.9334 29.4314 29.5979 29.2876L29.0227 28.8563C28.9268 28.8083 28.8789 28.8083 28.8789 28.7125Z" fill="#262626"/>
<path d="M34.3907 22.9624C34.7262 22.9624 35.0617 23.0583 35.3014 23.25C35.4931 23.3458 35.6369 23.4417 35.6848 23.6334C35.7328 23.7293 35.6848 23.8731 35.589 23.921C35.3493 23.9689 35.1096 23.8251 34.9179 23.7772L34.4865 23.7293C33.8634 23.6814 33.2403 23.7772 32.6172 23.921C31.5684 24.2178 30.5903 24.7231 29.7414 25.4069C29.5496 25.5027 29.31 25.6465 29.0703 25.5986C28.9265 25.5986 28.9265 25.4069 28.9745 25.2631C29.0224 24.9755 29.31 24.7358 29.5496 24.4962C30.029 24.0648 30.6521 23.7772 31.2272 23.5376C32.1859 23.1062 33.3362 22.8665 34.3907 22.9624ZM41.8679 23.0583C42.2035 22.9624 42.539 23.0103 42.8266 23.202C43.0183 23.3458 43.21 23.4896 43.2579 23.7293C43.3059 23.8731 43.3059 24.0169 43.1621 24.0648C43.0183 24.1127 42.8266 24.1127 42.6828 24.0169C42.4431 23.8731 42.2514 23.7293 41.9638 23.7293C41.7241 23.7293 41.4845 23.7772 41.2928 23.8731C40.9093 24.0648 40.5259 24.4003 40.3341 24.7838L40.0466 25.2151H39.9028V24.9276C39.9986 24.5441 40.2383 24.1607 40.5259 23.8731C40.8614 23.4896 41.3407 23.1541 41.8679 23.0583Z" fill="#262626"/>
<path d="M20.6348 31.3541C20.8744 31.3541 21.1141 31.3062 21.3058 31.45C21.4496 31.5458 21.5455 31.6896 21.4975 31.8813C21.4017 32.0731 21.2099 32.2169 20.9703 32.2169H20.2034C19.9637 32.1689 19.772 32.0731 19.6761 31.8813C19.6282 31.6896 19.772 31.5458 19.9158 31.45C20.1555 31.3541 20.3951 31.402 20.6348 31.3541ZM21.2579 32.4565C21.4017 32.5045 21.5934 32.6003 21.5934 32.792C21.5934 32.9358 21.5455 33.0796 21.4017 33.1276C21.162 33.3193 20.8744 33.3193 20.5868 33.4151C20.3472 33.4631 20.1075 33.511 19.9158 33.3672C19.7241 33.2234 19.772 32.9358 19.9158 32.792C20.1075 32.6003 20.2993 32.6003 20.5389 32.5524C20.7786 32.5045 21.0182 32.4086 21.2579 32.4565ZM24.7089 34.9489H25.0924C25.2362 34.9969 25.3799 35.1407 25.3799 35.3324C25.3799 35.572 25.1882 35.7638 24.9486 35.8117C24.7089 35.9076 24.5172 35.7158 24.4213 35.5241C24.3734 35.2845 24.4693 34.9969 24.7089 34.9489Z" fill="#262626"/>
<path d="M39.3759 33.1238C39.3759 33.2676 39.2801 33.4114 39.1842 33.5552C38.9925 33.8427 38.657 34.0345 38.3214 34.1303C38.0818 34.1783 37.8901 34.0345 37.6983 34.1303C37.5066 34.1303 37.3149 34.1783 37.1232 34.0824C37.0273 34.0345 37.0273 33.8907 37.1232 33.7948C37.267 33.6031 37.5066 33.4593 37.6983 33.4593C37.8901 33.4114 38.0339 33.4114 38.1777 33.5552L38.2256 33.8907C38.4652 33.7948 38.5611 33.651 38.7528 33.5072L39.3759 33.1238Z" fill="#262626"/>
<path d="M44.7436 32.1218C45.175 32.1218 45.5584 32.3135 45.7981 32.649C45.9101 32.7962 45.9916 32.9643 46.0378 33.1434C46.0841 33.3225 46.0941 33.509 46.0673 33.6921C46.0405 33.8751 45.9775 34.0509 45.8819 34.2093C45.7863 34.3676 45.66 34.5053 45.5105 34.6142C45.894 34.7101 46.2774 34.9497 46.565 35.2373C46.9964 35.7645 47.3319 36.4835 47.284 37.2025C47.236 37.5859 47.0922 37.9214 46.9005 38.209C46.5171 38.8321 45.894 39.2635 45.2229 39.5511L45.6064 39.9825C45.7502 40.318 45.7981 40.6535 45.7981 41.037C45.7502 41.6121 45.5105 42.1873 45.0791 42.6187C44.5841 43.0921 43.9406 43.3799 43.2577 43.4335C42.7784 43.4815 42.2512 43.4815 41.7719 43.3377C41.724 43.6732 41.6281 44.0566 41.4843 44.3921C41.1614 44.9617 40.6477 45.399 40.0339 45.627C39.4201 45.855 38.7456 45.859 38.1291 45.6384C37.5539 45.3987 37.0746 44.9673 36.7871 44.488C36.0681 44.9194 35.3012 45.0632 34.4864 45.0632C33.8153 45.1111 33.0005 45.0632 32.4253 44.7277C32.0419 44.5839 31.8022 44.2963 31.5626 44.0087C31.4188 43.8649 31.3229 43.7211 31.275 43.4815C30.7477 43.9128 30.0288 44.0087 29.4057 43.9128C28.9264 43.769 28.495 43.5294 28.2553 43.098C28.0157 42.8104 27.9677 42.379 27.9677 41.9956H27.2967C26.9132 41.9477 26.5298 41.7559 26.1943 41.5163C25.667 41.037 25.2357 40.4139 24.9481 39.7428C24.8522 39.4552 24.7563 39.1677 24.7563 38.8321C24.7563 38.3049 24.9481 37.7777 25.2836 37.3463C25.1398 37.0108 25.0919 36.6752 25.1877 36.3397C25.3315 35.7645 25.7629 35.2852 26.2422 34.9977C26.6736 34.7101 27.2008 34.6142 27.7281 34.6621C27.8239 34.3745 27.9677 34.1828 28.2074 33.9911C28.7346 33.5118 29.4057 33.2242 30.1246 33.2242C30.6039 33.2242 31.0353 33.2721 31.4188 33.4639C31.6105 33.1763 31.8501 33.0325 32.1377 32.9366C32.665 32.697 33.2402 32.7449 33.7674 32.9845C34.6781 33.3201 35.3971 33.8473 36.2598 34.1828C36.4995 34.3745 36.835 34.3266 37.1705 34.3745C37.506 34.4225 37.8415 34.3745 38.1771 34.3266C38.3208 34.2787 38.5126 34.2787 38.6084 34.1828L39.5191 33.7035L40.4777 32.9845C40.8612 32.7449 41.3405 32.5052 41.8198 32.5532C42.0115 32.6011 42.1553 32.697 42.2512 32.8408C42.9911 32.3566 43.8595 32.1061 44.7436 32.1218Z" fill="#262626"/>
<path d="M33.1933 36.5735C33.3371 36.5256 33.433 36.5735 33.433 36.6694C33.433 36.8131 33.2892 36.9569 33.1454 37.0049C33.0016 36.8611 33.0496 36.6694 33.1933 36.5735ZM34.3916 37.1487L36.1171 37.4842L37.5551 37.58C37.8906 37.628 38.1782 37.58 38.4658 37.6759C38.4178 37.7718 38.322 37.8197 38.1782 37.8676C36.9898 38.0548 35.774 37.9563 34.6313 37.58C34.4875 37.5321 34.2958 37.4363 34.2478 37.2925C34.1999 37.1966 34.2958 37.1007 34.3916 37.1487Z" fill="#FFDECC"/>
<path d="M32.9537 14.6719C34.3072 14.6746 35.6567 14.8192 36.98 15.1033C37.5072 15.2471 37.9865 15.343 38.4658 15.5347L40.1434 16.1578C40.6227 16.3016 41.0541 16.5892 41.5334 16.7809L42.3003 17.0685L43.6903 17.3561C43.93 17.4519 44.1217 17.5957 44.2176 17.8354C44.3614 18.123 44.3134 18.4106 44.2176 18.6981L44.6969 18.9378C44.9365 19.1775 45.0324 19.513 44.9365 19.8485C44.8407 20.0402 44.6489 20.184 44.4572 20.2799C43.4373 20.8029 42.2625 20.9391 41.15 20.6633L39.041 20.184L36.0693 19.3692C33.5286 18.5 30.7634 18.5509 28.2565 19.513L28.0648 20.184C27.8731 20.9509 27.7293 21.7178 27.6813 22.4847V23.2995L27.6334 23.683C27.4896 24.0185 27.202 24.354 27.0103 24.6895C26.4351 25.5523 25.9079 26.463 25.4765 27.3737L25.3806 28.0447V29.914C25.3806 30.1537 25.4765 30.3454 25.3327 30.5371C24.6137 30.4413 23.8948 30.2495 23.1279 30.0578C23.032 30.0578 22.8882 30.0578 22.7924 29.9619L22.4568 29.5306C22.2651 29.3868 22.2172 29.0992 22.1213 28.8595C21.7858 27.853 21.6899 26.7026 21.6899 25.6002C21.6899 24.2581 21.9296 22.964 22.1693 21.6699C22.361 20.9509 22.6486 20.2799 22.9841 19.6568C23.4634 18.6981 24.1344 17.8833 24.9013 17.1643C25.6682 16.3974 26.5789 15.8702 27.5855 15.4868C29.3063 14.8744 31.1287 14.5978 32.9537 14.6719ZM24.0865 30.5371C24.5658 30.5371 25.0451 30.6809 25.4765 30.7768C25.6682 30.8247 25.9079 30.9206 26.0517 31.0644C26.1955 31.1602 26.1475 31.3519 26.0037 31.3999C25.5724 31.5437 25.2368 31.3999 24.8534 31.304C24.5658 31.2082 24.1824 31.1123 23.8948 30.9206C23.7989 30.8726 23.6551 30.7288 23.751 30.633C23.8468 30.5371 23.9906 30.5371 24.0865 30.5371ZM45.0324 36.1451C45.0803 36.2409 45.0803 36.2889 44.9845 36.3847L45.0324 36.1451Z" fill="#262626"/>
</g>
</svg>
